<svg xmlns="http://www.w3.org/2000/svg" version="1.1" xmlns:xlink="http://www.w3.org/1999/xlink" width="512" height="512" x="0" y="0" viewBox="0 0 36 36" style="enable-background:new 0 0 512 512" xml:space="preserve" class=""><g><path fill="#000000" d="M31.833 8.377c0 6.917 3.583 11.667 3.583 15S33.5 33.71 18.167 33.71.583 24.293.583 20.627c0-17.167 31.25-24.5 31.25-12.25z" opacity="1" data-original="#efefef" class=""></path><g fill="#a4afc1"><path d="m27.64 3.612.707-.707 1.414 1.414-.707.707zM31.705 7.677l.707-.707 1.414 1.414-.707.707zM31.532 4.324l1.414-1.414.707.707-1.414 1.414z" fill="#a4afc1" opacity="1" data-original="#a4afc1"></path></g><path fill="#2fdf84" d="M9.5 8.5h-2c-.55.01-1 .45-1 1v12c0 .55.45 1 1 1h19a1 1 0 0 0 1-1v-12c0-.55-.45-1-1-1h-2z" opacity="1" data-original="#2fdf84" class=""></path><path fill="#f3f3f1" d="M17 22.5c-2.04-1.78-4.16-2.43-6.37-2.18-.6.07-1.13-.38-1.13-.98V7.59c0-.5.37-.93.87-1 2.29-.34 4.51.29 6.63 2.14 2.12-1.85 4.34-2.48 6.63-2.14.5.07.87.5.87 1V20.5s-5.042-.625-7.5 2z" opacity="1" data-original="#f3f3f1" class=""></path><circle cx="23.5" cy="23.5" r="6" fill="#f3f3f1" opacity="1" data-original="#f3f3f1" class=""></circle><path fill="#00b871" d="M8.5 21.5v-12c0-.55.45-.99 1-1h-2c-.55.01-1 .45-1 1v12c0 .55.45 1 1 1h2c-.55 0-1-.45-1-1z" opacity="1" data-original="#00b871" class=""></path><path fill="#d5dbe1" d="M12.75 20.312c-.04.004-.08.004-.12.008-.6.07-1.13-.38-1.13-.98V7.59c0-.5.37-.93.87-1 .046-.007.091-.007.137-.013a7.652 7.652 0 0 0-2.137.013c-.5.07-.87.5-.87 1v11.75c0 .6.53 1.05 1.13.98a7.631 7.631 0 0 1 2.12.059zM19.5 23.5a5.996 5.996 0 0 1 5-5.91 5.998 5.998 0 0 0-1-.09 6 6 0 1 0 0 12c.341 0 .674-.035 1-.09a5.996 5.996 0 0 1-5-5.91z" opacity="1" data-original="#d5dbe1" class=""></path><path d="M23.5 30c-3.584 0-6.5-2.916-6.5-6.5s2.916-6.5 6.5-6.5 6.5 2.916 6.5 6.5-2.916 6.5-6.5 6.5zm0-12c-3.033 0-5.5 2.467-5.5 5.5s2.467 5.5 5.5 5.5 5.5-2.467 5.5-5.5-2.467-5.5-5.5-5.5z" fill="#000000" opacity="1" data-original="#000000" class=""></path><path d="M23.5 27a.5.5 0 0 1-.5-.5v-4a.5.5 0 0 1 1 0v4a.5.5 0 0 1-.5.5z" fill="#000000" opacity="1" data-original="#000000" class=""></path><circle cx="23.5" cy="20.5" r=".5" fill="#000000" opacity="1" data-original="#000000" class=""></circle><path d="M14.839 21.55a.517.517 0 0 1-.221-.051 7.02 7.02 0 0 0-3.934-.682 1.51 1.51 0 0 1-1.189-.373A1.48 1.48 0 0 1 9 19.34V7.59c0-.748.559-1.391 1.3-1.495 2.388-.353 4.642.312 6.7 1.982 2.058-1.67 4.308-2.335 6.703-1.981A1.515 1.515 0 0 1 25 7.59v6.91a.5.5 0 0 1-1 0V7.59a.513.513 0 0 0-.44-.505c-2.25-.336-4.289.328-6.231 2.022a.5.5 0 0 1-.657 0c-1.941-1.694-3.977-2.357-6.228-2.022A.512.512 0 0 0 10 7.59v11.75a.47.47 0 0 0 .16.357c.11.097.257.142.412.126a8.001 8.001 0 0 1 4.489.778.501.501 0 0 1-.222.949z" fill="#000000" opacity="1" data-original="#000000" class=""></path><path d="M27.5 16a.5.5 0 0 1-.5-.5v-6a.5.5 0 0 0-.5-.5h-2a.5.5 0 0 1 0-1h2c.827 0 1.5.673 1.5 1.5v6a.5.5 0 0 1-.5.5zM14.5 23h-7c-.827 0-1.5-.673-1.5-1.5v-12c0-.812.669-1.485 1.491-1.5H9.5a.5.5 0 0 1 0 1h-2a.51.51 0 0 0-.5.5v12a.5.5 0 0 0 .5.5h7a.5.5 0 0 1 0 1zM17 18a.5.5 0 0 1-.5-.5v-9a.5.5 0 0 1 1 0v9a.5.5 0 0 1-.5.5z" fill="#000000" opacity="1" data-original="#000000" class=""></path></g></svg>