<svg xmlns="http://www.w3.org/2000/svg" version="1.1" xmlns:xlink="http://www.w3.org/1999/xlink" width="512" height="512" x="0" y="0" viewBox="0 0 512 512" style="enable-background:new 0 0 512 512" xml:space="preserve" class=""><g><path fill-rule="evenodd" d="M268.42 160.59v15.49h-23.81v-15.49c0-2.52-1.6-4.73-3.99-5.52-2.43-.8-4.8-1.78-7.08-2.94a5.775 5.775 0 0 0-6.73 1.08l-10.96 10.95-16.83-16.83 10.94-10.95c1.78-1.79 2.22-4.48 1.08-6.73a50.254 50.254 0 0 1-2.93-7.08c-.79-2.4-3-3.99-5.52-3.99H187.1V94.77h15.49c2.52 0 4.73-1.6 5.52-4 .8-2.43 1.77-4.8 2.93-7.07a5.79 5.79 0 0 0-1.08-6.73l-10.94-10.95 16.83-16.83 10.96 10.95a5.806 5.806 0 0 0 6.73 1.08c2.28-1.15 4.65-2.14 7.07-2.93 2.39-.79 3.99-3 3.99-5.52v-15.5h23.81v15.48c0 2.52 1.6 4.73 3.99 5.52 2.42.8 4.8 1.78 7.08 2.93 2.25 1.14 4.95.71 6.73-1.07l10.96-10.95L314 66.02l-10.94 10.95a5.79 5.79 0 0 0-1.08 6.73c1.16 2.28 2.13 4.65 2.93 7.07.79 2.4 3 4 5.52 4h15.49v23.81h-15.49c-2.52 0-4.73 1.6-5.52 3.99-.8 2.43-1.77 4.8-2.93 7.08a5.775 5.775 0 0 0 1.08 6.73l10.95 10.95-16.84 16.83-10.95-10.95a5.79 5.79 0 0 0-6.73-1.08 51.52 51.52 0 0 1-7.08 2.94c-2.39.79-3.99 3-3.99 5.52zm141.63 153.65v61.69c0 3.31-2.69 6-6 6h-21.47v37.76h47.47c8.62 0 15.64-7.02 15.64-15.65V288.45c0-5.03-4.08-9.12-9.15-9.12h-17.37c-3.3 0-6.6 2.14-8.19 5.33-.18.36-.4.7-.65 1.02-1.4 1.79-3.06 4.08-4.82 6.5-8.46 11.67-18.99 26.2-30.86 28.58l-25.89 5.17c-9.12 1.83-12.57 6.62-11.91 10.3.65 3.65 5.42 6.94 14.38 5.53 2.41-.38 5.37-.73 8.8-1.14 10.22-1.21 31.49-3.72 35.74-8.92zM38.84 426.69v-49.26c6.66-2.45 11.42-8.85 11.42-16.36v-90.09c0-9.61-7.81-17.42-17.42-17.42s-17.42 7.81-17.42 17.42v90.09c0 7.51 4.76 13.91 11.42 16.36v54.85c-.17 11.33 1.57 14.11 8.88 14.11h2.25v51.13c0 3.31 2.69 6 6 6s6-2.69 6-6v-51.13h56.63v51.13c0 3.31 2.69 6 6 6 3.32 0 6-2.69 6-6v-51.13h11.85v-19.7zm343.74 0h91.62V377.3c-6.62-2.45-11.31-8.79-11.31-16.23v-90.09c0-9.55 7.76-17.32 17.32-17.32s17.32 7.77 17.32 17.32v90.09c0 7.44-4.74 13.78-11.31 16.23v55c.28 6.68-1.6 14.09-8.9 14.09h-2.25v51.13c0 3.31-2.7 6-6 6-3.31 0-6-2.69-6-6v-51.13h-56.62v51.13c0 3.31-2.69 6-6 6-3.32 0-6-2.69-6-6v-51.13H382.6v-19.7zm-12-44.76v109.59H142.45V381.93zm27.47-27.76v15.75H114.99v-15.75zm-177.28-74.06-17.19 42.86c-2.57 6.4-2.83 11.56-.7 14.15 1.56 1.89 4.69 2.72 7.99 2.1 3.13-.58 5.59-2.3 6.27-4.37l9.1-27.23c1.06-3.14 4.46-4.84 7.6-3.79s4.84 4.45 3.79 7.59l-9.1 27.2c-.4 1.21-.94 2.36-1.62 3.45h59.21c-.68-1.09-1.23-2.25-1.63-3.48l-9.08-27.17c-1.06-3.14.64-6.54 3.78-7.59s6.55.65 7.6 3.79l9.09 27.2c.69 2.1 3.15 3.82 6.28 4.4 3.3.62 6.43-.21 7.99-2.1 2.13-2.59 1.87-7.75-.7-14.15l-17.19-42.86c-1.85-4.62-5.79-7.04-7.38-7.04h-56.73c-1.59.01-5.52 2.43-7.38 7.04zm-117.78 34.15v61.67c0 3.31 2.68 6 6 6h21.46V419.7H83.01c-8.64 0-15.66-7.02-15.66-15.65v-115.6c0-5.03 4.09-9.12 9.12-9.12h17.39c3.3 0 6.6 2.14 8.19 5.33.18.36.4.7.65 1.02 1.41 1.79 3.06 4.08 4.82 6.5 8.46 11.67 18.99 26.2 30.86 28.58l25.89 5.17c9.12 1.83 12.57 6.62 11.92 10.3-.66 3.65-5.44 6.94-14.39 5.53-2.41-.38-5.37-.73-8.8-1.14-10.22-1.21-31.48-3.72-35.74-8.92zm-13.53-59.49c-12.05 0-21.85-9.8-21.85-21.85s9.8-21.85 21.85-21.85 21.86 9.8 21.86 21.85-9.81 21.85-21.86 21.85zm312.25-21.85c0 12.05 9.81 21.85 21.86 21.85 12.04 0 21.84-9.8 21.84-21.85s-9.8-21.85-21.84-21.85c-12.05 0-21.86 9.8-21.86 21.85zm-123.34-9.71c0-12.05-9.8-21.86-21.85-21.86s-21.86 9.81-21.86 21.86 9.81 21.85 21.86 21.85 21.85-9.8 21.85-21.85zm7.98-116.54c0-16.44-13.39-29.83-29.83-29.83-16.45 0-29.83 13.38-29.83 29.83s13.38 29.83 29.83 29.83c16.44 0 29.83-13.38 29.83-29.83z" clip-rule="evenodd" fill="#00ff2b" opacity="1" data-original="#000000" class=""></path></g></svg>